<?xml version="1.0" encoding="UTF-8"?>
<svg version="1.1" xmlns="http://www.w3.org/2000/svg" width="512" height="512">
<path d="M0 0 C1.38044756 -0.00067528 2.760895 -0.00164716 4.14134216 -0.00289917 C7.01993961 -0.00436513 9.89850582 -0.00225695 12.77709961 0.00244141 C16.4473624 0.00814342 20.11755211 0.00484967 23.78781223 -0.00113106 C26.63356568 -0.00476197 29.47930209 -0.00358659 32.32505608 -0.00100327 C34.33011295 -0.00002197 36.33517051 -0.0030323 38.34022522 -0.00613403 C44.52813708 0.00970263 50.50535881 0.16578022 56.62109375 1.1328125 C56.62109375 1.7928125 56.62109375 2.4528125 56.62109375 3.1328125 C57.57113281 3.0915625 58.52117187 3.0503125 59.5 3.0078125 C64.32649485 3.0078125 68.86940642 4.07729961 73.55859375 5.1328125 C74.87053711 5.41898438 74.87053711 5.41898438 76.20898438 5.7109375 C78.34786248 6.17845184 80.4850531 6.65253067 82.62109375 7.1328125 C82.62109375 7.7928125 82.62109375 8.4528125 82.62109375 9.1328125 C83.73484375 9.2359375 84.84859375 9.3390625 85.99609375 9.4453125 C93.58122653 10.40850396 100.47032136 12.94450746 107.37109375 16.1484375 C111.0288944 17.74872528 114.81299934 18.94447098 118.62109375 20.1328125 C118.62109375 20.7928125 118.62109375 21.4528125 118.62109375 22.1328125 C119.81734375 22.4628125 121.01359375 22.7928125 122.24609375 23.1328125 C128.59765081 25.24001146 134.15849111 28.73751759 139.88427734 32.125 C143.33497821 34.12731841 146.8797285 35.95929455 150.4140625 37.80859375 C152.52507504 39.07520127 153.93137091 40.36757133 155.62109375 42.1328125 C157.19890625 43.15375 157.19890625 43.15375 158.80859375 44.1953125 C159.73671875 44.8346875 160.66484375 45.4740625 161.62109375 46.1328125 C161.62109375 46.7928125 161.62109375 47.4528125 161.62109375 48.1328125 C162.38421875 48.4215625 163.14734375 48.7103125 163.93359375 49.0078125 C166.62109375 50.1328125 166.62109375 50.1328125 169.62109375 52.1328125 C169.62109375 52.7928125 169.62109375 53.4528125 169.62109375 54.1328125 C170.21921875 54.4215625 170.81734375 54.7103125 171.43359375 55.0078125 C173.62109375 56.1328125 173.62109375 56.1328125 176.62109375 58.1328125 C176.62109375 58.7928125 176.62109375 59.4528125 176.62109375 60.1328125 C177.45640625 60.473125 177.45640625 60.473125 178.30859375 60.8203125 C181.24614096 62.48756902 183.23920813 64.75092688 185.62109375 67.1328125 C187.78729919 68.42801245 187.78729919 68.42801245 189.62109375 69.1328125 C190.70390625 67.8025 190.70390625 67.8025 191.80859375 66.4453125 C195.68576969 61.80362299 199.90471693 57.90591396 204.62109375 54.1328125 C207.30944626 51.57887761 209.74620632 48.98267742 212.12109375 46.1328125 C215.92019227 41.57389428 220.00070579 37.82912286 224.62109375 34.1328125 C227.14089019 31.73593296 229.44833908 29.34875583 231.62109375 26.6328125 C237.25745739 19.58735795 237.25745739 19.58735795 241.62109375 18.1328125 C241.62109375 17.4728125 241.62109375 16.8128125 241.62109375 16.1328125 C242.28109375 16.1328125 242.94109375 16.1328125 243.62109375 16.1328125 C243.62109375 66.6228125 243.62109375 117.1128125 243.62109375 169.1328125 C236.03109375 169.1328125 228.44109375 169.1328125 220.62109375 169.1328125 C220.62109375 235.1328125 220.62109375 301.1328125 220.62109375 369.1328125 C198.51109375 369.1328125 176.40109375 369.1328125 153.62109375 369.1328125 C136.43186882 341.63005261 136.43186882 341.63005261 130.68359375 332.2578125 C129.34506636 330.07941831 128.00652425 327.90103317 126.66796875 325.72265625 C126.00216797 324.63839355 125.33636719 323.55413086 124.65039062 322.43701172 C121.24758248 316.89639509 117.84078841 311.35823238 114.43359375 305.8203125 C113.77101563 304.74305908 113.1084375 303.66580566 112.42578125 302.5559082 C108.74119407 296.56799892 105.04593467 290.58690166 101.33862305 284.61303711 C95.68534071 275.50056977 90.03446192 266.39042541 84.62109375 257.1328125 C84.15268066 256.33278809 83.68426758 255.53276367 83.20166016 254.70849609 C76.40668568 243.04230787 70.0219088 231.21081683 63.99609375 219.1328125 C63.54636703 218.23219589 63.54636703 218.23219589 63.08755493 217.31338501 C60.10129101 211.3183096 57.16185277 205.33154372 54.62109375 199.1328125 C54.76507804 202.88288573 54.91166553 206.63285355 55.05859375 210.3828125 C55.09791016 211.40761719 55.13722656 212.43242187 55.17773438 213.48828125 C55.466902 220.84825291 55.466902 220.84825291 55.86730957 228.20263672 C56.77398712 243.27745353 56.74928364 258.3323003 56.71875 273.4296875 C56.71727559 275.89143857 56.71625796 278.35318996 56.71569824 280.81494141 C56.71050314 289.83756995 56.69654214 298.86019175 56.68359375 307.8828125 C56.66296875 328.0953125 56.64234375 348.3078125 56.62109375 369.1328125 C15.04109375 369.1328125 -26.53890625 369.1328125 -69.37890625 369.1328125 C-73.99890625 360.2228125 -78.61890625 351.3128125 -83.37890625 342.1328125 C-87.89350262 333.83979887 -87.89350262 333.83979887 -92.4296875 325.55859375 C-96.0875531 318.86821193 -99.60363454 312.10479998 -103.10791016 305.33300781 C-104.03268145 303.54740004 -104.97415709 301.77034737 -105.93188477 300.00219727 C-107.37890625 297.1328125 -107.37890625 297.1328125 -108.73022461 293.60522461 C-110.29675058 289.89268233 -111.66611257 287.12196905 -114.37890625 284.1328125 C-119.77763533 282.38019596 -124.63841026 282.57873947 -130.31640625 282.8203125 C-137.77234375 282.975 -137.77234375 282.975 -145.37890625 283.1328125 C-145.37890625 301.2828125 -145.37890625 319.4328125 -145.37890625 338.1328125 C-144.71890625 338.1328125 -144.05890625 338.1328125 -143.37890625 338.1328125 C-143.07597656 338.77347656 -142.77304688 339.41414063 -142.4609375 340.07421875 C-139.18115668 346.8457047 -135.77344613 352.81058548 -130.37890625 358.1328125 C-127.37890625 361.79947917 -127.37890625 361.79947917 -127.37890625 364.1328125 C-126.71890625 364.1328125 -126.05890625 364.1328125 -125.37890625 364.1328125 C-123.94865399 365.77374507 -122.58468235 367.47272253 -121.25390625 369.1953125 C-117.78275517 373.55952672 -114.27243994 377.23318259 -109.91015625 380.6953125 C-108.37890625 382.1328125 -108.37890625 382.1328125 -107.37890625 385.1328125 C-105.57958046 386.19997954 -105.57958046 386.19997954 -103.37890625 387.1328125 C-100.2542474 388.8856699 -97.89355722 390.61816153 -95.37890625 393.1328125 C-94.55390625 393.6278125 -93.72890625 394.1228125 -92.87890625 394.6328125 C-90.37890625 396.1328125 -90.37890625 396.1328125 -88.953125 397.58740234 C-87.29550563 399.21468686 -85.71529237 400.22889297 -83.69140625 401.359375 C-82.99273437 401.75125 -82.2940625 402.143125 -81.57421875 402.546875 C-80.48753906 403.14628906 -80.48753906 403.14628906 -79.37890625 403.7578125 C-78.65445313 404.16515625 -77.93 404.5725 -77.18359375 404.9921875 C-74.24778546 406.62800688 -71.57867893 408.06622161 -68.37890625 409.1328125 C-68.37890625 409.7928125 -68.37890625 410.4528125 -68.37890625 411.1328125 C-67.34830078 411.44025391 -67.34830078 411.44025391 -66.296875 411.75390625 C-64.94529297 412.15802734 -64.94529297 412.15802734 -63.56640625 412.5703125 C-62.67308594 412.83714844 -61.77976563 413.10398437 -60.859375 413.37890625 C-59.0241757 413.93669123 -57.19856899 414.52625825 -55.37890625 415.1328125 C-55.37890625 415.7928125 -55.37890625 416.4528125 -55.37890625 417.1328125 C-54.31671875 417.38675781 -53.25453125 417.64070313 -52.16015625 417.90234375 C-50.7330099 418.24974122 -49.3059301 418.59741218 -47.87890625 418.9453125 C-46.83476562 419.1937793 -46.83476562 419.1937793 -45.76953125 419.44726562 C-42.20063572 420.32296684 -38.79329007 421.31360748 -35.375 422.66796875 C-31.29585554 424.25140661 -27.25099825 425.06448977 -22.94140625 425.7578125 C-22.20220947 425.88260986 -21.4630127 426.00740723 -20.70141602 426.13598633 C-15.60822183 426.97971983 -10.52154164 427.66530019 -5.37890625 428.1328125 C-5.37890625 428.7928125 -5.37890625 429.4528125 -5.37890625 430.1328125 C8.81109375 430.1328125 23.00109375 430.1328125 37.62109375 430.1328125 C37.62109375 429.4728125 37.62109375 428.8128125 37.62109375 428.1328125 C38.21011475 428.05240723 38.79913574 427.97200195 39.40600586 427.88916016 C42.1240786 427.51588775 44.84132363 427.13688171 47.55859375 426.7578125 C48.94788086 426.56832031 48.94788086 426.56832031 50.36523438 426.375 C60.99833198 425.22833967 60.99833198 425.22833967 70.62109375 421.1328125 C73.73344897 420.24918981 76.84926617 419.46746006 79.99609375 418.72070312 C84.03516794 417.71093458 87.11349008 416.33160883 90.62109375 414.1328125 C92.37220004 413.51161713 94.14438252 412.94629165 95.93359375 412.4453125 C96.81660156 412.19394531 97.69960938 411.94257813 98.609375 411.68359375 C99.60517578 411.41095703 99.60517578 411.41095703 100.62109375 411.1328125 C100.62109375 410.4728125 100.62109375 409.8128125 100.62109375 409.1328125 C102.4106256 408.29490461 104.2027907 407.46261854 105.99609375 406.6328125 C106.99382812 406.16875 107.9915625 405.7046875 109.01953125 405.2265625 C111.62109375 404.1328125 111.62109375 404.1328125 113.62109375 404.1328125 C113.62109375 403.4728125 113.62109375 402.8128125 113.62109375 402.1328125 C120.37109375 398.1328125 120.37109375 398.1328125 122.62109375 398.1328125 C122.62109375 397.4728125 122.62109375 396.8128125 122.62109375 396.1328125 C128.03285846 392.1328125 128.03285846 392.1328125 130.62109375 392.1328125 C130.95109375 391.1428125 131.28109375 390.1528125 131.62109375 389.1328125 C134.68359375 387.9453125 134.68359375 387.9453125 137.62109375 387.1328125 C150.05297933 401.37087621 150.05297933 401.37087621 155.37109375 407.9453125 C158.96292315 412.38383465 162.71705518 416.63806739 166.578125 420.84375 C172.62109375 427.61464806 172.62109375 427.61464806 172.62109375 430.1328125 C173.28109375 430.1328125 173.94109375 430.1328125 174.62109375 430.1328125 C174.62109375 430.7928125 174.62109375 431.4528125 174.62109375 432.1328125 C174.04359375 432.3803125 173.46609375 432.6278125 172.87109375 432.8828125 C170.52522752 434.05125467 170.52522752 434.05125467 168.68359375 436.0703125 C166.49383779 438.26006846 164.26673707 439.54542651 161.62109375 441.1328125 C160.98171875 441.8134375 160.34234375 442.4940625 159.68359375 443.1953125 C157.18651662 445.54105162 154.83356323 446.06198934 151.62109375 447.1328125 C151.29109375 448.1228125 150.96109375 449.1128125 150.62109375 450.1328125 C149.0546875 451.125 149.0546875 451.125 147.05859375 452.0078125 C144.22573722 453.3318107 141.60692331 454.72543557 138.99609375 456.4453125 C135.2040697 458.87220789 131.26388124 460.92416006 127.24609375 462.9453125 C126.62653809 463.25960205 126.00698242 463.5738916 125.36865234 463.89770508 C120.86866088 466.1328125 120.86866088 466.1328125 118.62109375 466.1328125 C118.62109375 466.7928125 118.62109375 467.4528125 118.62109375 468.1328125 C117.48671875 468.53113281 116.35234375 468.92945313 115.18359375 469.33984375 C113.66274532 469.87495709 112.14191284 470.41011577 110.62109375 470.9453125 C109.50541016 471.33686523 109.50541016 471.33686523 108.3671875 471.73632812 C104.6615968 473.0413405 100.9681392 474.36921655 97.29296875 475.7578125 C92.30066486 477.62727098 87.97553995 479.1328125 82.62109375 479.1328125 C82.62109375 479.7928125 82.62109375 480.4528125 82.62109375 481.1328125 C81.40208374 481.35215454 81.40208374 481.35215454 80.15844727 481.57592773 C76.49941459 482.23665557 72.84150412 482.90340066 69.18359375 483.5703125 C67.90419922 483.80041016 66.62480469 484.03050781 65.30664062 484.26757812 C64.09169922 484.48994141 62.87675781 484.71230469 61.625 484.94140625 C60.49908447 485.14564209 59.37316895 485.34987793 58.21313477 485.56030273 C55.70377611 485.8708099 55.70377611 485.8708099 54.62109375 487.1328125 C47.21674934 488.42821611 39.80171891 488.27716724 32.3046875 488.265625 C30.92041507 488.26629999 29.53614276 488.26727163 28.15187073 488.26852417 C25.26310081 488.26999148 22.37436199 488.26787751 19.4855957 488.26318359 C15.79839069 488.25748152 12.11125841 488.26077449 8.42405605 488.26675606 C5.56976277 488.27038328 2.71548652 488.26921326 -0.1388073 488.26662827 C-2.15443342 488.26564494 -4.17006022 488.2686606 -6.1856842 488.27175903 C-7.42064133 488.26860687 -8.65559845 488.26545471 -9.92797852 488.26220703 C-11.54724998 488.26101364 -11.54724998 488.26101364 -13.19923401 488.25979614 C-22.62849013 487.88322862 -22.62849013 487.88322862 -24.37890625 486.1328125 C-26.37121316 485.69276732 -28.37524878 485.30556897 -30.3828125 484.94140625 C-32.20522461 484.60786133 -32.20522461 484.60786133 -34.06445312 484.26757812 C-35.34384766 484.03748047 -36.62324219 483.80738281 -37.94140625 483.5703125 C-39.22466797 483.33634766 -40.50792969 483.10238281 -41.83007812 482.86132812 C-45.01240062 482.28164856 -48.19534537 481.70564516 -51.37890625 481.1328125 C-51.37890625 480.4728125 -51.37890625 479.8128125 -51.37890625 479.1328125 C-52.08015625 479.02324219 -52.78140625 478.91367187 -53.50390625 478.80078125 C-54.92703125 478.56294922 -54.92703125 478.56294922 -56.37890625 478.3203125 C-57.77109375 478.09408203 -57.77109375 478.09408203 -59.19140625 477.86328125 C-63.08842877 476.97021359 -66.6644917 475.59161608 -70.37890625 474.1328125 C-71.80507676 473.59522835 -73.23216638 473.06007631 -74.66015625 472.52734375 C-80.51953125 470.33007812 -80.51953125 470.33007812 -86.37890625 468.1328125 C-86.37890625 467.4728125 -86.37890625 466.8128125 -86.37890625 466.1328125 C-87.03890625 466.0503125 -87.69890625 465.9678125 -88.37890625 465.8828125 C-96.16378921 463.93659176 -103.39384858 458.98486636 -110.37890625 455.1328125 C-110.37890625 454.4728125 -110.37890625 453.8128125 -110.37890625 453.1328125 C-111.28640625 452.8440625 -112.19390625 452.5553125 -113.12890625 452.2578125 C-115.70093533 451.36749474 -117.99237391 450.41786837 -120.37890625 449.1328125 C-120.37890625 448.4728125 -120.37890625 447.8128125 -120.37890625 447.1328125 C-121.14203125 446.8440625 -121.90515625 446.5553125 -122.69140625 446.2578125 C-125.37890625 445.1328125 -125.37890625 445.1328125 -128.37890625 443.1328125 C-128.37890625 442.4728125 -128.37890625 441.8128125 -128.37890625 441.1328125 C-128.93578125 440.8646875 -129.49265625 440.5965625 -130.06640625 440.3203125 C-132.59115959 439.02381754 -135.01605109 437.70804927 -137.37890625 436.1328125 C-137.37890625 435.4728125 -137.37890625 434.8128125 -137.37890625 434.1328125 C-138.03890625 433.9471875 -138.69890625 433.7615625 -139.37890625 433.5703125 C-142.94047753 431.86372626 -145.41060296 429.65250677 -148.3125 427.00390625 C-150.79804351 424.75329124 -153.40127837 422.6686596 -156.03125 420.58984375 C-157.65514514 418.83415422 -157.8559634 417.42900704 -158.37890625 415.1328125 C-159.70358371 414.449108 -161.03754258 413.78317064 -162.37890625 413.1328125 C-163.06158763 411.80760747 -163.72961035 410.47469068 -164.37890625 409.1328125 C-165.36890625 408.8028125 -166.35890625 408.4728125 -167.37890625 408.1328125 C-168.74253833 406.15334658 -170.07309269 404.150888 -171.37890625 402.1328125 C-172.49265625 401.0190625 -172.49265625 401.0190625 -173.62890625 399.8828125 C-174.20640625 399.3053125 -174.78390625 398.7278125 -175.37890625 398.1328125 C-175.37890625 397.4728125 -175.37890625 396.8128125 -175.37890625 396.1328125 C-176.03890625 396.1328125 -176.69890625 396.1328125 -177.37890625 396.1328125 C-178.81640625 394.19921875 -178.81640625 394.19921875 -180.37890625 391.6953125 C-182.33189785 388.32274599 -182.33189785 388.32274599 -185.37890625 386.1328125 C-186.10584529 384.15392289 -186.77706876 382.15326692 -187.37890625 380.1328125 C-188.03890625 380.1328125 -188.69890625 380.1328125 -189.37890625 380.1328125 C-189.75402344 379.4315625 -190.12914062 378.7303125 -190.515625 378.0078125 C-193.98838169 371.55961232 -193.98838169 371.55961232 -197.81640625 365.3203125 C-202.43732294 358.08887793 -206.28598165 350.12723627 -209.37890625 342.1328125 C-209.72050781 341.31941406 -210.06210938 340.50601562 -210.4140625 339.66796875 C-212.28648873 335.16133071 -213.8632087 331.03193919 -214.37890625 326.1328125 C-215.03890625 326.1328125 -215.69890625 326.1328125 -216.37890625 326.1328125 C-216.55019043 325.46749512 -216.72147461 324.80217773 -216.89794922 324.11669922 C-217.68109249 321.07983779 -218.46746987 318.04382272 -219.25390625 315.0078125 C-219.52332031 313.96109375 -219.79273438 312.914375 -220.0703125 311.8359375 C-221.60997805 305.86713304 -221.60997805 305.86713304 -223.4765625 299.99609375 C-224.77411336 295.87875705 -225.33284421 291.7116866 -225.94140625 287.4453125 C-226.12993164 286.19331055 -226.12993164 286.19331055 -226.32226562 284.91601562 C-226.70213972 282.32451853 -227.04872599 279.73109219 -227.37890625 277.1328125 C-227.47896973 276.36267822 -227.5790332 275.59254395 -227.68212891 274.79907227 C-228.79343019 264.7302822 -228.62003541 254.56188774 -228.62890625 244.4453125 C-228.630578 243.44269379 -228.63224976 242.44007507 -228.63397217 241.40707397 C-228.63546793 226.45377146 -228.15143826 211.86922151 -225.37890625 197.1328125 C-225.14252441 195.82256104 -225.14252441 195.82256104 -224.90136719 194.48583984 C-224.08101907 190.12322537 -223.08631198 186.23855858 -221.37890625 182.1328125 C-220.61058976 179.27615799 -219.96405178 176.39389828 -219.31640625 173.5078125 C-217.48799113 165.46006714 -217.48799113 165.46006714 -216.37890625 162.1328125 C-215.71890625 162.1328125 -215.05890625 162.1328125 -214.37890625 162.1328125 C-214.19714844 161.28009766 -214.19714844 161.28009766 -214.01171875 160.41015625 C-212.96568571 155.59035786 -211.78686141 150.8595191 -210.37890625 146.1328125 C-209.71890625 146.1328125 -209.05890625 146.1328125 -208.37890625 146.1328125 C-208.17394531 145.51792969 -207.96898437 144.90304688 -207.7578125 144.26953125 C-206.63151042 140.890625 -205.50520833 137.51171875 -204.37890625 134.1328125 C-203.71890625 134.1328125 -203.05890625 134.1328125 -202.37890625 134.1328125 C-202.23195313 133.59914062 -202.085 133.06546875 -201.93359375 132.515625 C-199.99460626 126.07462058 -196.95486934 120.79653848 -193.37890625 115.1328125 C-193.04890625 114.4728125 -192.71890625 113.8128125 -192.37890625 113.1328125 C-191.71890625 113.1328125 -191.05890625 113.1328125 -190.37890625 113.1328125 C-190.146875 112.44832031 -189.91484375 111.76382813 -189.67578125 111.05859375 C-188.08814533 107.47684886 -185.93631775 104.46019853 -183.62890625 101.3203125 C-183.18224609 100.70591309 -182.73558594 100.09151367 -182.27539062 99.45849609 C-181.38717365 98.23896519 -180.49660832 97.02114061 -179.60351562 95.80517578 C-178.5440394 94.35832328 -177.49915676 92.9008056 -176.45703125 91.44140625 C-175.93625 90.72082031 -175.41546875 90.00023438 -174.87890625 89.2578125 C-174.43546875 88.64164062 -173.99203125 88.02546875 -173.53515625 87.390625 C-173.15359375 86.97554688 -172.77203125 86.56046875 -172.37890625 86.1328125 C-171.71890625 86.1328125 -171.05890625 86.1328125 -170.37890625 86.1328125 C-170.05019531 85.33037109 -170.05019531 85.33037109 -169.71484375 84.51171875 C-167.90967543 81.29725236 -165.50811148 78.74466408 -163.00390625 76.0703125 C-162.21185791 75.2196521 -162.21185791 75.2196521 -161.40380859 74.35180664 C-154.33658655 66.8547787 -147.03078418 59.78276945 -138.37890625 54.1328125 C-137.02389706 52.82151328 -135.69219282 51.48589563 -134.37890625 50.1328125 C-130.28029751 46.31617193 -126.46489372 43.56021561 -121.37890625 41.1328125 C-120.88390625 40.6378125 -120.38890625 40.1428125 -119.87890625 39.6328125 C-117.6913011 37.44520735 -115.18174097 36.38514291 -112.37890625 35.1328125 C-111.71890625 35.1328125 -111.05890625 35.1328125 -110.37890625 35.1328125 C-110.37890625 34.4728125 -110.37890625 33.8128125 -110.37890625 33.1328125 C-108.75640684 32.29462092 -107.13082128 31.4624009 -105.50390625 30.6328125 C-104.59898437 30.16875 -103.6940625 29.7046875 -102.76171875 29.2265625 C-100.37890625 28.1328125 -100.37890625 28.1328125 -98.37890625 28.1328125 C-98.37890625 27.4728125 -98.37890625 26.8128125 -98.37890625 26.1328125 C-96.77740739 25.45976232 -95.17259596 24.79459023 -93.56640625 24.1328125 C-92.67308594 23.7615625 -91.77976563 23.3903125 -90.859375 23.0078125 C-88.37890625 22.1328125 -88.37890625 22.1328125 -85.37890625 22.1328125 C-85.37890625 21.4728125 -85.37890625 20.8128125 -85.37890625 20.1328125 C-84.39148438 19.79507812 -83.4040625 19.45734375 -82.38671875 19.109375 C-81.09234248 18.65915717 -79.79807738 18.20861966 -78.50390625 17.7578125 C-77.52744141 17.42523437 -77.52744141 17.42523437 -76.53125 17.0859375 C-73.6134008 16.06318624 -71.59333974 15.34724599 -69.37890625 13.1328125 C-66.91951163 12.34373273 -64.50159223 11.64642539 -62.00390625 11.0078125 C-61.33101562 10.82605469 -60.658125 10.64429688 -59.96484375 10.45703125 C-56.62050763 9.58144719 -53.86322115 9.1328125 -50.37890625 9.1328125 C-50.37890625 8.4728125 -50.37890625 7.8128125 -50.37890625 7.1328125 C-49.59652588 6.98658447 -48.81414551 6.84035645 -48.00805664 6.68969727 C-44.48507142 6.02892458 -40.96323866 5.36220095 -37.44140625 4.6953125 C-36.20970703 4.46521484 -34.97800781 4.23511719 -33.70898438 3.99804688 C-32.53916016 3.77568359 -31.36933594 3.55332031 -30.1640625 3.32421875 C-29.0800415 3.11998291 -27.99602051 2.91574707 -26.87915039 2.70532227 C-24.45143309 2.38248536 -24.45143309 2.38248536 -23.37890625 1.1328125 C-15.59430707 -0.04470733 -7.85981529 -0.01217764 0 0 Z M2.18359375 57.6328125 C0.94319336 57.70435547 0.94319336 57.70435547 -0.32226562 57.77734375 C-2.34124982 57.89404804 -4.3600935 58.01317915 -6.37890625 58.1328125 C-6.37890625 58.7928125 -6.37890625 59.4528125 -6.37890625 60.1328125 C-7.65636719 60.09542969 -8.93382812 60.05804688 -10.25 60.01953125 C-15.47529793 60.02259834 -20.34189965 60.87234822 -25.44140625 61.9453125 C-26.71081055 62.1937793 -26.71081055 62.1937793 -28.00585938 62.44726562 C-32.69090803 63.40450379 -37.06192286 64.64093889 -41.50561523 66.40356445 C-44.41430935 67.53588158 -47.39226748 68.41809871 -50.37890625 69.3203125 C-52.08046875 69.83658203 -52.08046875 69.83658203 -53.81640625 70.36328125 C-54.66203125 70.61722656 -55.50765625 70.87117188 -56.37890625 71.1328125 C-56.37890625 71.7928125 -56.37890625 72.4528125 -56.37890625 73.1328125 C-57.06597656 73.33777344 -57.75304687 73.54273437 -58.4609375 73.75390625 C-59.36199219 74.02332031 -60.26304687 74.29273437 -61.19140625 74.5703125 C-62.08472656 74.83714844 -62.97804687 75.10398437 -63.8984375 75.37890625 C-65.7336368 75.93669123 -67.55924351 76.52625825 -69.37890625 77.1328125 C-69.37890625 77.7928125 -69.37890625 78.4528125 -69.37890625 79.1328125 C-70.62027344 79.48859375 -70.62027344 79.48859375 -71.88671875 79.8515625 C-75.99780621 81.35988094 -79.5215632 83.36881371 -83.25390625 85.6328125 C-83.94226563 86.03628906 -84.630625 86.43976563 -85.33984375 86.85546875 C-87.05709523 87.88786398 -88.723488 89.00392678 -90.37890625 90.1328125 C-90.37890625 90.7928125 -90.37890625 91.4528125 -90.37890625 92.1328125 C-91.14203125 92.4215625 -91.90515625 92.7103125 -92.69140625 93.0078125 C-95.52919933 94.09550263 -95.52919933 94.09550263 -98.37890625 96.1328125 C-98.37890625 96.7928125 -98.37890625 97.4528125 -98.37890625 98.1328125 C-99.10078125 98.37386719 -99.82265625 98.61492187 -100.56640625 98.86328125 C-103.76762592 100.30827624 -105.81096268 102.05792746 -108.37890625 104.4453125 C-109.24515625 105.24839844 -110.11140625 106.05148438 -111.00390625 106.87890625 C-111.78765625 107.62269531 -112.57140625 108.36648437 -113.37890625 109.1328125 C-113.93578125 109.66003906 -114.49265625 110.18726563 -115.06640625 110.73046875 C-117.15933421 112.76733614 -118.7467029 114.68450748 -120.37890625 117.1328125 C-119.40244141 117.17768799 -118.42597656 117.22256348 -117.41992188 117.26879883 C-113.71408077 117.44212561 -110.00910659 117.63033409 -106.30419922 117.82250977 C-104.71617627 117.90291801 -103.1279571 117.97956055 -101.53955078 118.05200195 C-78.46509003 119.11146896 -58.38581156 123.47470908 -39.37890625 137.1328125 C-38.6828125 137.62394531 -37.98671875 138.11507812 -37.26953125 138.62109375 C-22.61033667 150.01895376 -14.98181067 169.29642702 -12.37890625 187.1328125 C-11.63780048 201.06560097 -10.99174176 215.74041564 -15.37890625 229.1328125 C-15.70761719 230.20789063 -16.03632813 231.28296875 -16.375 232.390625 C-21.96866509 248.76516018 -32.65673317 260.74414979 -47.42578125 269.37109375 C-49.89010801 270.84121461 -52.10644067 272.39301334 -54.37890625 274.1328125 C-47.73573887 286.58179848 -41.07271978 299.0084299 -34.06640625 311.2578125 C-27.84350151 322.14935748 -21.96286299 333.21380618 -16.11401367 344.30908203 C-15.7629657 344.97440948 -15.41191772 345.63973694 -15.05023193 346.32522583 C-14.09445962 348.13793003 -13.14078326 349.95173891 -12.18725586 351.765625 C-10.31080068 355.25962659 -8.3610114 358.69792834 -6.37890625 362.1328125 C-6.04890625 362.1328125 -5.71890625 362.1328125 -5.37890625 362.1328125 C-5.37890625 281.2828125 -5.37890625 200.4328125 -5.37890625 117.1328125 C16.73109375 117.1328125 38.84109375 117.1328125 61.62109375 117.1328125 C62.61109375 119.6078125 62.61109375 119.6078125 63.62109375 122.1328125 C64.35314526 123.49055746 65.11835218 124.83089913 65.9140625 126.15234375 C66.37264648 126.91643555 66.83123047 127.68052734 67.30371094 128.46777344 C67.80032227 129.28536133 68.29693359 130.10294922 68.80859375 130.9453125 C69.32454102 131.8002832 69.84048828 132.65525391 70.37207031 133.53613281 C77.00054189 144.47644279 83.80895367 155.30627546 90.62109375 166.1328125 C95.07495419 164.52854369 96.78579399 162.94274655 99.62109375 159.1328125 C103.07261397 155.49963332 106.77493945 152.33794108 110.62109375 149.1328125 C112.30820798 147.4868474 113.97565595 145.82044101 115.62109375 144.1328125 C116.46671875 143.3078125 117.31234375 142.4828125 118.18359375 141.6328125 C120.64125263 139.20365717 120.64125263 139.20365717 122.62109375 136.5703125 C124.73987982 133.98804197 126.99312297 132.18391164 129.62109375 130.1328125 C131.30872226 128.4873747 132.97512865 126.81992673 134.62109375 125.1328125 C135.88953125 123.8953125 135.88953125 123.8953125 137.18359375 122.6328125 C139.65878483 120.18044252 139.65878483 120.18044252 141.74609375 117.4453125 C143.62109375 115.1328125 143.62109375 115.1328125 146.62109375 113.1328125 C145.3599165 109.24418263 144.16845208 107.23905651 140.62109375 105.1328125 C139.96109375 105.1328125 139.30109375 105.1328125 138.62109375 105.1328125 C138.41484375 104.5553125 138.20859375 103.9778125 137.99609375 103.3828125 C136.12035637 100.31342407 133.63515112 99.03966512 130.62109375 97.1328125 C129.60240713 96.15185502 128.59757392 95.15579172 127.62109375 94.1328125 C124.80599382 91.8554624 124.80599382 91.8554624 121.62109375 92.1328125 C121.29109375 91.1428125 120.96109375 90.1528125 120.62109375 89.1328125 C118.63862977 88.09848346 116.63696059 87.10042858 114.62109375 86.1328125 C114.15574219 85.65199219 113.69039062 85.17117187 113.2109375 84.67578125 C111.30800079 82.82895079 109.4885311 81.99014553 107.05859375 80.9453125 C106.27355469 80.60113281 105.48851562 80.25695312 104.6796875 79.90234375 C102.67514963 79.01609606 102.67514963 79.01609606 100.62109375 79.1328125 C100.62109375 78.4728125 100.62109375 77.8128125 100.62109375 77.1328125 C99.70585937 76.79507813 98.790625 76.45734375 97.84765625 76.109375 C96.65914062 75.66335937 95.470625 75.21734375 94.24609375 74.7578125 C93.06273437 74.31695312 91.879375 73.87609375 90.66015625 73.421875 C87.62109375 72.1328125 87.62109375 72.1328125 85.62109375 70.1328125 C82.87572195 69.22927241 80.15316013 68.4043099 77.37109375 67.6328125 C75.86560184 67.20672988 74.36038798 66.77966343 72.85546875 66.3515625 C71.76238403 66.0429126 71.76238403 66.0429126 70.6472168 65.72802734 C68.93756234 65.22578158 67.24706053 64.65900794 65.5625 64.078125 C62.0241519 62.94096665 58.45610573 62.18737872 54.80859375 61.5078125 C54.10734375 61.37592529 53.40609375 61.24403809 52.68359375 61.1081543 C47.55892428 60.19227356 42.80715818 59.85498762 37.62109375 60.1328125 C37.62109375 59.4728125 37.62109375 58.8128125 37.62109375 58.1328125 C34.60037445 57.96382121 31.57954552 57.79755121 28.55859375 57.6328125 C27.28725586 57.56126953 27.28725586 57.56126953 25.99023438 57.48828125 C18.01077044 57.05695888 10.15663793 57.15738521 2.18359375 57.6328125 Z M-145.37890625 167.1328125 C-145.37890625 189.5728125 -145.37890625 212.0128125 -145.37890625 235.1328125 C-136.22140625 235.2565625 -136.22140625 235.2565625 -126.87890625 235.3828125 C-124.98849609 235.41922852 -123.09808594 235.45564453 -121.15039062 235.49316406 C-108.60106262 235.63323774 -93.85630588 235.45155667 -83.91796875 226.6953125 C-83.15613281 225.921875 -83.15613281 225.921875 -82.37890625 225.1328125 C-81.89164063 224.6584375 -81.404375 224.1840625 -80.90234375 223.6953125 C-74.22402464 216.50928492 -73.37890625 207.53011145 -73.37890625 198.1328125 C-74.29905137 187.91057527 -77.94116324 180.51028968 -85.8046875 173.89453125 C-94.31229504 168.07217769 -103.82354105 166.97557262 -113.8359375 167.03515625 C-114.63688843 167.03616333 -115.43783936 167.03717041 -116.26306152 167.03820801 C-119.23919111 167.04341817 -122.2153002 167.05737938 -125.19140625 167.0703125 C-131.85328125 167.0909375 -138.51515625 167.1115625 -145.37890625 167.1328125 Z M93.62109375 169.1328125 C95.06571571 172.7443674 96.36185269 175.56001306 98.3515625 178.80859375 C99.17394409 180.15630859 99.17394409 180.15630859 100.01293945 181.53125 C100.60550537 182.49289063 101.19807129 183.45453125 101.80859375 184.4453125 C102.42500732 185.45207031 103.0414209 186.45882812 103.67651367 187.49609375 C108.22046146 194.90113057 112.82113279 202.27032245 117.43359375 209.6328125 C133.52937433 235.3283279 149.61563498 261.76437267 160.62109375 290.1328125 C160.95109375 290.1328125 161.28109375 290.1328125 161.62109375 290.1328125 C161.73669005 282.06247851 161.4825603 274.08058115 160.96044922 266.02783203 C159.57588563 244.61911761 159.2683201 223.20321451 158.99609375 201.7578125 C158.98584797 200.95242664 158.97560219 200.14704079 158.96504593 199.3172493 C158.83810583 189.25587744 158.72795284 179.19443967 158.62109375 169.1328125 C137.17109375 169.1328125 115.72109375 169.1328125 93.62109375 169.1328125 Z " fill="#FEFEFE" transform="translate(248.37890625,11.8671875)"/>
<path d="M0 0 C19.49929669 6.6998815 34.66664931 19.676657 44.3125 37.875 C53.78269178 57.86762709 55.9231833 84.86607202 49 106 C48.50693359 107.61261719 48.50693359 107.61261719 48.00390625 109.2578125 C41.77867158 127.48116382 29.29744524 139.58720961 13 149 C12.01 149.66 11.02 150.32 10 151 C16.64316416 163.44897995 23.30606836 175.87569056 30.3125 188.125 C36.5688298 199.07284134 42.47623945 210.19738998 48.3527832 221.35205078 C48.70563889 222.02099365 49.05849457 222.68993652 49.42204285 223.37915039 C50.38464881 225.20523233 51.34498881 227.03250824 52.30517578 228.85986328 C53.79291966 231.61632566 55.38843153 234.31405254 57 237 C57.495 116.715 57.495 116.715 58 -6 C80.11 -6 102.22 -6 125 -6 C129.29 1.26 133.58 8.52 138 16 C142.47655922 23.13487784 142.47655922 23.13487784 146.984375 30.25 C155.84313633 44.16597358 164.40644835 58.27268358 173.04443359 72.32617188 C176.76048305 78.37001419 180.49057766 84.40469547 184.23828125 90.42895508 C199.16798559 114.45143728 213.45493687 138.68510438 224 165 C224.11256644 159.01209101 223.98157434 153.08445838 223.5625 147.109375 C221.98263208 124.10976486 221.82643785 101.16816883 221.875 78.125 C221.87671204 77.30778976 221.87842407 76.49057953 221.88018799 75.64860535 C221.90317455 65.43227679 221.94939657 55.21626943 222 45 C242.46 45 262.92 45 284 45 C284 111.33 284 177.66 284 246 C261.89 246 239.78 246 217 246 C199.81077507 218.49724011 199.81077507 218.49724011 194.0625 209.125 C192.72397261 206.94660581 191.3854305 204.76822067 190.046875 202.58984375 C189.38107422 201.50558105 188.71527344 200.42131836 188.02929688 199.30419922 C184.62648873 193.76358259 181.21969466 188.22541988 177.8125 182.6875 C177.14992188 181.61024658 176.48734375 180.53299316 175.8046875 179.4230957 C172.12010032 173.43518642 168.42484092 167.45408916 164.7175293 161.48022461 C159.06424696 152.36775727 153.41336817 143.25761291 148 134 C147.29738037 132.79996338 147.29738037 132.79996338 146.58056641 131.57568359 C139.78559193 119.90949537 133.40081505 108.07800433 127.375 96 C127.07518219 95.39958893 126.77536438 94.79917786 126.46646118 94.18057251 C123.48019726 88.1854971 120.54075902 82.19873122 118 76 C118.14398429 79.75007323 118.29057178 83.50004105 118.4375 87.25 C118.47681641 88.27480469 118.51613281 89.29960937 118.55664062 90.35546875 C118.84580825 97.71544041 118.84580825 97.71544041 119.24621582 105.06982422 C120.15289337 120.14464103 120.12818989 135.1994878 120.09765625 150.296875 C120.09618184 152.75862607 120.09516421 155.22037746 120.09460449 157.68212891 C120.08940939 166.70475745 120.07544839 175.72737925 120.0625 184.75 C120.041875 204.9625 120.02125 225.175 120 246 C78.42 246 36.84 246 -6 246 C-10.62 237.09 -15.24 228.18 -20 219 C-24.51459637 210.70698637 -24.51459637 210.70698637 -29.05078125 202.42578125 C-32.70864685 195.73539943 -36.22472829 188.97198748 -39.72900391 182.20019531 C-40.6537752 180.41458754 -41.59525084 178.63753487 -42.55297852 176.86938477 C-44 174 -44 174 -45.35131836 170.47241211 C-46.91784433 166.75986983 -48.28720632 163.98915655 -51 161 C-56.39872908 159.24738346 -61.25950401 159.44592697 -66.9375 159.6875 C-71.908125 159.790625 -76.87875 159.89375 -82 160 C-82 177.82 -82 195.64 -82 214 C-85 213 -85 213 -86.68359375 209.71875 C-87.27917337 208.31710006 -87.86321187 206.91050728 -88.4375 205.5 C-89.05175945 204.03762433 -89.66634092 202.57538388 -90.28125 201.11328125 C-90.57515625 200.40510254 -90.8690625 199.69692383 -91.171875 198.96728516 C-92.48841847 195.83971815 -93.92901612 192.77042173 -95.37109375 189.69921875 C-96 188 -96 188 -96 185 C-96.66 185 -97.32 185 -98 185 C-98.84311119 181.77330584 -99.67273868 178.54329082 -100.5 175.3125 C-100.73847656 174.40048828 -100.97695312 173.48847656 -101.22265625 172.54882812 C-101.44824219 171.66259766 -101.67382812 170.77636719 -101.90625 169.86328125 C-102.11572266 169.05157471 -102.32519531 168.23986816 -102.54101562 167.40356445 C-103.02272289 164.881007 -103.07974843 162.56191817 -103 160 C-103.66 160 -104.32 160 -105 160 C-105.31835861 157.93839618 -105.62926615 155.87564187 -105.9375 153.8125 C-106.11152344 152.66394531 -106.28554687 151.51539063 -106.46484375 150.33203125 C-109.36658662 128.45304986 -111.56015526 101.57337103 -103.83544922 80.46777344 C-103.04685824 78.1384112 -102.4494069 75.85653955 -101.91796875 73.45703125 C-101.73476074 72.63444824 -101.55155273 71.81186523 -101.36279297 70.96435547 C-100.56721582 67.31119508 -99.77718875 63.65712676 -99 60 C-98.34 60 -97.68 60 -97 60 C-96.89042969 59.35933594 -96.78085938 58.71867187 -96.66796875 58.05859375 C-95.67539672 52.6438309 -94.37541347 47.96677361 -92 43 C-91.34 43 -90.68 43 -90 43 C-89.896875 42.13375 -89.79375 41.2675 -89.6875 40.375 C-88.96601586 36.83316877 -87.72876739 34.15687958 -86 31 C-85.34 31 -84.68 31 -84 31 C-83.63261719 29.72382813 -83.63261719 29.72382813 -83.2578125 28.421875 C-81.88794594 24.69515728 -80.04686259 21.54359382 -77.875 18.25 C-77.47829102 17.64091797 -77.08158203 17.03183594 -76.67285156 16.40429688 C-73.10205338 11.00122755 -69.16597749 5.95733129 -65 1 C-64.49210937 0.36964844 -63.98421875 -0.26070312 -63.4609375 -0.91015625 C-52.66035913 -14.26876634 -14.78853563 -4.84510243 0 0 Z M-82 44 C-82 66.44 -82 88.88 -82 112 C-72.8425 112.12375 -72.8425 112.12375 -63.5 112.25 C-61.60958984 112.28641602 -59.71917969 112.32283203 -57.77148438 112.36035156 C-45.22215637 112.50042524 -30.47739963 112.31874417 -20.5390625 103.5625 C-19.77722656 102.7890625 -19.77722656 102.7890625 -19 102 C-18.51273438 101.525625 -18.02546875 101.05125 -17.5234375 100.5625 C-10.84511839 93.37647242 -10 84.39729895 -10 75 C-10.92014512 64.77776277 -14.56225699 57.37747718 -22.42578125 50.76171875 C-30.93338879 44.93936519 -40.4446348 43.84276012 -50.45703125 43.90234375 C-51.25798218 43.90335083 -52.05893311 43.90435791 -52.88415527 43.90539551 C-55.86028486 43.91060567 -58.83639395 43.92456688 -61.8125 43.9375 C-68.474375 43.958125 -75.13625 43.97875 -82 44 Z " fill="#007EFE" transform="translate(185,135)"/>
<path d="M0 0 C19.49929669 6.6998815 34.66664931 19.676657 44.3125 37.875 C53.78269178 57.86762709 55.9231833 84.86607202 49 106 C48.50693359 107.61261719 48.50693359 107.61261719 48.00390625 109.2578125 C41.77867158 127.48116382 29.29744524 139.58720961 13 149 C12.01 149.66 11.02 150.32 10 151 C16.64316738 163.44898598 23.30618647 175.8756174 30.3125 188.125 C36.53540474 199.01654498 42.41604326 210.08099368 48.26489258 221.17626953 C48.61594055 221.84159698 48.96698853 222.50692444 49.32867432 223.19241333 C50.28444663 225.00511753 51.23812299 226.81892641 52.19165039 228.6328125 C53.11947584 230.36044427 54.05627025 232.08756397 55.11642456 233.73730469 C58.13320057 238.49883099 58 239.80293405 58 246 C36.88 246 15.76 246 -6 246 C-10.62 237.09 -15.24 228.18 -20 219 C-24.51459637 210.70698637 -24.51459637 210.70698637 -29.05078125 202.42578125 C-32.70864685 195.73539943 -36.22472829 188.97198748 -39.72900391 182.20019531 C-40.6537752 180.41458754 -41.59525084 178.63753487 -42.55297852 176.86938477 C-44 174 -44 174 -45.35131836 170.47241211 C-46.91784433 166.75986983 -48.28720632 163.98915655 -51 161 C-56.39872908 159.24738346 -61.25950401 159.44592697 -66.9375 159.6875 C-71.908125 159.790625 -76.87875 159.89375 -82 160 C-82 177.82 -82 195.64 -82 214 C-85 213 -85 213 -86.68359375 209.71875 C-87.27917337 208.31710006 -87.86321187 206.91050728 -88.4375 205.5 C-89.05175945 204.03762433 -89.66634092 202.57538388 -90.28125 201.11328125 C-90.57515625 200.40510254 -90.8690625 199.69692383 -91.171875 198.96728516 C-92.48841847 195.83971815 -93.92901612 192.77042173 -95.37109375 189.69921875 C-96 188 -96 188 -96 185 C-96.66 185 -97.32 185 -98 185 C-98.84311119 181.77330584 -99.67273868 178.54329082 -100.5 175.3125 C-100.73847656 174.40048828 -100.97695312 173.48847656 -101.22265625 172.54882812 C-101.44824219 171.66259766 -101.67382812 170.77636719 -101.90625 169.86328125 C-102.11572266 169.05157471 -102.32519531 168.23986816 -102.54101562 167.40356445 C-103.02272289 164.881007 -103.07974843 162.56191817 -103 160 C-103.66 160 -104.32 160 -105 160 C-105.31835861 157.93839618 -105.62926615 155.87564187 -105.9375 153.8125 C-106.11152344 152.66394531 -106.28554687 151.51539063 -106.46484375 150.33203125 C-109.36658662 128.45304986 -111.56015526 101.57337103 -103.83544922 80.46777344 C-103.04685824 78.1384112 -102.4494069 75.85653955 -101.91796875 73.45703125 C-101.73476074 72.63444824 -101.55155273 71.81186523 -101.36279297 70.96435547 C-100.56721582 67.31119508 -99.77718875 63.65712676 -99 60 C-98.34 60 -97.68 60 -97 60 C-96.89042969 59.35933594 -96.78085938 58.71867187 -96.66796875 58.05859375 C-95.67539672 52.6438309 -94.37541347 47.96677361 -92 43 C-91.34 43 -90.68 43 -90 43 C-89.896875 42.13375 -89.79375 41.2675 -89.6875 40.375 C-88.96601586 36.83316877 -87.72876739 34.15687958 -86 31 C-85.34 31 -84.68 31 -84 31 C-83.63261719 29.72382813 -83.63261719 29.72382813 -83.2578125 28.421875 C-81.88794594 24.69515728 -80.04686259 21.54359382 -77.875 18.25 C-77.47829102 17.64091797 -77.08158203 17.03183594 -76.67285156 16.40429688 C-73.10205338 11.00122755 -69.16597749 5.95733129 -65 1 C-64.49210937 0.36964844 -63.98421875 -0.26070312 -63.4609375 -0.91015625 C-52.66035913 -14.26876634 -14.78853563 -4.84510243 0 0 Z M-82 44 C-82 66.44 -82 88.88 -82 112 C-72.8425 112.12375 -72.8425 112.12375 -63.5 112.25 C-61.60958984 112.28641602 -59.71917969 112.32283203 -57.77148438 112.36035156 C-45.22215637 112.50042524 -30.47739963 112.31874417 -20.5390625 103.5625 C-19.77722656 102.7890625 -19.77722656 102.7890625 -19 102 C-18.51273438 101.525625 -18.02546875 101.05125 -17.5234375 100.5625 C-10.84511839 93.37647242 -10 84.39729895 -10 75 C-10.92014512 64.77776277 -14.56225699 57.37747718 -22.42578125 50.76171875 C-30.93338879 44.93936519 -40.4446348 43.84276012 -50.45703125 43.90234375 C-51.25798218 43.90335083 -52.05893311 43.90435791 -52.88415527 43.90539551 C-55.86028486 43.91060567 -58.83639395 43.92456688 -61.8125 43.9375 C-68.474375 43.958125 -75.13625 43.97875 -82 44 Z " fill="#920303" transform="translate(185,135)"/>
</svg>
